<mxfile host="app.diagrams.net" modified="2021-01-07T00:00:08.341Z" agent="5.0 (X11; Linux x86_64) AppleWebKit/537.36 (KHTML, like Gecko) Chrome/87.0.4280.88 Safari/537.36" etag="zexaClF0kMwK5CV2jmWC" version="14.1.4" type="github">
  <diagram id="aNIrtbhr2YYGRZcoxwh4" name="Page-1">
    <mxGraphModel dx="1960" dy="744" grid="1" gridSize="10" guides="1" tooltips="1" connect="1" arrows="1" fold="1" page="1" pageScale="1" pageWidth="850" pageHeight="1100" math="0" shadow="0">
      <root>
        <mxCell id="0" />
        <mxCell id="1" parent="0" />
        <mxCell id="SfVPnzxpGZciWS-98-xS-1" value="" style="ellipse;html=1;shape=startState;fillColor=#000000;strokeColor=#ff0000;" parent="1" vertex="1">
          <mxGeometry x="330" y="150" width="30" height="30" as="geometry" />
        </mxCell>
        <mxCell id="SfVPnzxpGZciWS-98-xS-2" value="" style="edgeStyle=orthogonalEdgeStyle;html=1;verticalAlign=bottom;endArrow=open;endSize=8;strokeColor=#ff0000;" parent="1" source="SfVPnzxpGZciWS-98-xS-1" edge="1">
          <mxGeometry relative="1" as="geometry">
            <mxPoint x="345" y="240" as="targetPoint" />
          </mxGeometry>
        </mxCell>
        <mxCell id="SfVPnzxpGZciWS-98-xS-5" value="Uruchomienie serwera i klienta" style="text;html=1;strokeColor=none;fillColor=none;align=center;verticalAlign=middle;whiteSpace=wrap;rounded=0;" parent="1" vertex="1">
          <mxGeometry x="325" y="120" width="40" height="10" as="geometry" />
        </mxCell>
        <mxCell id="SfVPnzxpGZciWS-98-xS-52" style="edgeStyle=orthogonalEdgeStyle;rounded=0;orthogonalLoop=1;jettySize=auto;html=1;" parent="1" source="SfVPnzxpGZciWS-98-xS-8" edge="1">
          <mxGeometry relative="1" as="geometry">
            <mxPoint x="345" y="200" as="targetPoint" />
            <Array as="points">
              <mxPoint x="450" y="305" />
              <mxPoint x="450" y="200" />
            </Array>
          </mxGeometry>
        </mxCell>
        <mxCell id="SfVPnzxpGZciWS-98-xS-53" style="edgeStyle=orthogonalEdgeStyle;rounded=0;orthogonalLoop=1;jettySize=auto;html=1;entryX=0.5;entryY=0;entryDx=0;entryDy=0;" parent="1" source="SfVPnzxpGZciWS-98-xS-8" target="SfVPnzxpGZciWS-98-xS-18" edge="1">
          <mxGeometry relative="1" as="geometry">
            <mxPoint x="220" y="400" as="targetPoint" />
            <Array as="points">
              <mxPoint x="230" y="305" />
            </Array>
          </mxGeometry>
        </mxCell>
        <mxCell id="SfVPnzxpGZciWS-98-xS-8" value="Czy wszyscy gracze dołączyli" style="rhombus;whiteSpace=wrap;html=1;" parent="1" vertex="1">
          <mxGeometry x="277.5" y="230" width="135" height="150" as="geometry" />
        </mxCell>
        <mxCell id="SfVPnzxpGZciWS-98-xS-11" value="Tak" style="text;html=1;strokeColor=none;fillColor=none;align=center;verticalAlign=middle;whiteSpace=wrap;rounded=0;" parent="1" vertex="1">
          <mxGeometry x="230" y="270" width="40" height="20" as="geometry" />
        </mxCell>
        <mxCell id="SfVPnzxpGZciWS-98-xS-12" value="Nie" style="text;html=1;strokeColor=none;fillColor=none;align=center;verticalAlign=middle;whiteSpace=wrap;rounded=0;" parent="1" vertex="1">
          <mxGeometry x="400" y="270" width="40" height="20" as="geometry" />
        </mxCell>
        <mxCell id="SfVPnzxpGZciWS-98-xS-24" style="edgeStyle=orthogonalEdgeStyle;rounded=0;orthogonalLoop=1;jettySize=auto;html=1;exitX=1;exitY=0.5;exitDx=0;exitDy=0;" parent="1" source="SfVPnzxpGZciWS-98-xS-72" target="SfVPnzxpGZciWS-98-xS-35" edge="1">
          <mxGeometry relative="1" as="geometry">
            <mxPoint x="30" y="660" as="targetPoint" />
            <Array as="points">
              <mxPoint x="30" y="660" />
              <mxPoint x="-125" y="660" />
            </Array>
          </mxGeometry>
        </mxCell>
        <mxCell id="SfVPnzxpGZciWS-98-xS-65" style="edgeStyle=orthogonalEdgeStyle;rounded=0;orthogonalLoop=1;jettySize=auto;html=1;entryX=0.5;entryY=0;entryDx=0;entryDy=0;" parent="1" source="SfVPnzxpGZciWS-98-xS-18" target="SfVPnzxpGZciWS-98-xS-25" edge="1">
          <mxGeometry relative="1" as="geometry">
            <mxPoint x="370" y="620" as="targetPoint" />
            <Array as="points">
              <mxPoint x="355" y="480" />
            </Array>
          </mxGeometry>
        </mxCell>
        <mxCell id="SfVPnzxpGZciWS-98-xS-77" style="edgeStyle=orthogonalEdgeStyle;rounded=0;orthogonalLoop=1;jettySize=auto;html=1;entryX=0.5;entryY=0;entryDx=0;entryDy=0;" parent="1" source="SfVPnzxpGZciWS-98-xS-18" target="SfVPnzxpGZciWS-98-xS-72" edge="1">
          <mxGeometry relative="1" as="geometry" />
        </mxCell>
        <mxCell id="SfVPnzxpGZciWS-98-xS-18" value="Czy jest moja kolej?" style="rhombus;whiteSpace=wrap;html=1;" parent="1" vertex="1">
          <mxGeometry x="164" y="410" width="132" height="140" as="geometry" />
        </mxCell>
        <mxCell id="SfVPnzxpGZciWS-98-xS-26" style="edgeStyle=orthogonalEdgeStyle;rounded=0;orthogonalLoop=1;jettySize=auto;html=1;exitX=1;exitY=0.5;exitDx=0;exitDy=0;" parent="1" source="SfVPnzxpGZciWS-98-xS-25" edge="1">
          <mxGeometry relative="1" as="geometry">
            <mxPoint x="230" y="400" as="targetPoint" />
            <mxPoint x="480" y="730" as="sourcePoint" />
            <Array as="points">
              <mxPoint x="470" y="720" />
              <mxPoint x="470" y="440" />
              <mxPoint x="290" y="440" />
              <mxPoint x="290" y="400" />
            </Array>
          </mxGeometry>
        </mxCell>
        <mxCell id="SfVPnzxpGZciWS-98-xS-29" style="edgeStyle=orthogonalEdgeStyle;rounded=0;orthogonalLoop=1;jettySize=auto;html=1;" parent="1" source="SfVPnzxpGZciWS-98-xS-25" edge="1">
          <mxGeometry relative="1" as="geometry">
            <mxPoint x="250" y="820" as="targetPoint" />
          </mxGeometry>
        </mxCell>
        <mxCell id="SfVPnzxpGZciWS-98-xS-25" value="Czy po wykonaniu ruchu&amp;nbsp; jesteś ostatnim graczem w grze?" style="rhombus;whiteSpace=wrap;html=1;" parent="1" vertex="1">
          <mxGeometry x="270" y="630" width="170" height="180" as="geometry" />
        </mxCell>
        <mxCell id="SfVPnzxpGZciWS-98-xS-27" value="Nie" style="text;html=1;strokeColor=none;fillColor=none;align=center;verticalAlign=middle;whiteSpace=wrap;rounded=0;" parent="1" vertex="1">
          <mxGeometry x="425" y="680" width="40" height="20" as="geometry" />
        </mxCell>
        <mxCell id="SfVPnzxpGZciWS-98-xS-28" value="Tak" style="text;html=1;strokeColor=none;fillColor=none;align=center;verticalAlign=middle;whiteSpace=wrap;rounded=0;" parent="1" vertex="1">
          <mxGeometry x="240" y="680" width="40" height="20" as="geometry" />
        </mxCell>
        <mxCell id="SfVPnzxpGZciWS-98-xS-31" value="" style="ellipse;html=1;shape=endState;fillColor=#000000;strokeColor=#ff0000;" parent="1" vertex="1">
          <mxGeometry x="240" y="820" width="30" height="30" as="geometry" />
        </mxCell>
        <mxCell id="SfVPnzxpGZciWS-98-xS-36" style="edgeStyle=orthogonalEdgeStyle;rounded=0;orthogonalLoop=1;jettySize=auto;html=1;" parent="1" source="SfVPnzxpGZciWS-98-xS-35" edge="1">
          <mxGeometry relative="1" as="geometry">
            <mxPoint x="100" y="480" as="targetPoint" />
            <Array as="points">
              <mxPoint x="100" y="848" />
              <mxPoint x="100" y="480" />
            </Array>
          </mxGeometry>
        </mxCell>
        <mxCell id="SfVPnzxpGZciWS-98-xS-40" style="edgeStyle=orthogonalEdgeStyle;rounded=0;orthogonalLoop=1;jettySize=auto;html=1;" parent="1" source="SfVPnzxpGZciWS-98-xS-41" edge="1">
          <mxGeometry relative="1" as="geometry">
            <mxPoint x="-230" y="1030" as="targetPoint" />
          </mxGeometry>
        </mxCell>
        <mxCell id="SfVPnzxpGZciWS-98-xS-35" value="Czy zaznaczenie jest prawidłowe?" style="rhombus;whiteSpace=wrap;html=1;" parent="1" vertex="1">
          <mxGeometry x="-190" y="790" width="130" height="115" as="geometry" />
        </mxCell>
        <mxCell id="SfVPnzxpGZciWS-98-xS-38" value="Nie" style="text;html=1;strokeColor=none;fillColor=none;align=center;verticalAlign=middle;whiteSpace=wrap;rounded=0;" parent="1" vertex="1">
          <mxGeometry x="-60" y="825" width="40" height="20" as="geometry" />
        </mxCell>
        <mxCell id="SfVPnzxpGZciWS-98-xS-45" style="edgeStyle=orthogonalEdgeStyle;rounded=0;orthogonalLoop=1;jettySize=auto;html=1;" parent="1" source="SfVPnzxpGZciWS-98-xS-44" edge="1">
          <mxGeometry relative="1" as="geometry">
            <mxPoint x="130" y="480" as="targetPoint" />
            <Array as="points">
              <mxPoint x="-230" y="1088" />
              <mxPoint x="130" y="1088" />
            </Array>
          </mxGeometry>
        </mxCell>
        <mxCell id="SfVPnzxpGZciWS-98-xS-47" style="edgeStyle=orthogonalEdgeStyle;rounded=0;orthogonalLoop=1;jettySize=auto;html=1;" parent="1" source="SfVPnzxpGZciWS-98-xS-44" target="SfVPnzxpGZciWS-98-xS-18" edge="1">
          <mxGeometry relative="1" as="geometry">
            <mxPoint x="220" y="680" as="targetPoint" />
            <Array as="points">
              <mxPoint x="-330" y="1087" />
              <mxPoint x="-330" y="1160" />
              <mxPoint x="220" y="1160" />
            </Array>
          </mxGeometry>
        </mxCell>
        <mxCell id="SfVPnzxpGZciWS-98-xS-44" value="Czy zaznaczenie jest prawidłowe?" style="rhombus;whiteSpace=wrap;html=1;" parent="1" vertex="1">
          <mxGeometry x="-295" y="1030" width="130" height="115" as="geometry" />
        </mxCell>
        <mxCell id="SfVPnzxpGZciWS-98-xS-46" value="Nie" style="text;html=1;strokeColor=none;fillColor=none;align=center;verticalAlign=middle;whiteSpace=wrap;rounded=0;" parent="1" vertex="1">
          <mxGeometry x="-165" y="1060" width="40" height="20" as="geometry" />
        </mxCell>
        <mxCell id="SfVPnzxpGZciWS-98-xS-51" style="edgeStyle=orthogonalEdgeStyle;rounded=0;orthogonalLoop=1;jettySize=auto;html=1;entryX=0;entryY=0;entryDx=0;entryDy=0;exitX=0;exitY=0.5;exitDx=0;exitDy=0;" parent="1" source="SfVPnzxpGZciWS-98-xS-72" target="SfVPnzxpGZciWS-98-xS-18" edge="1">
          <mxGeometry relative="1" as="geometry">
            <mxPoint x="40" y="320" as="sourcePoint" />
            <Array as="points">
              <mxPoint x="30" y="390" />
              <mxPoint x="197" y="390" />
            </Array>
          </mxGeometry>
        </mxCell>
        <mxCell id="SfVPnzxpGZciWS-98-xS-54" value="" style="endArrow=classic;html=1;" parent="1" edge="1">
          <mxGeometry width="50" height="50" relative="1" as="geometry">
            <mxPoint x="340" y="190" as="sourcePoint" />
            <mxPoint x="600" y="310" as="targetPoint" />
            <Array as="points">
              <mxPoint x="600" y="190" />
            </Array>
          </mxGeometry>
        </mxCell>
        <mxCell id="SfVPnzxpGZciWS-98-xS-56" style="edgeStyle=orthogonalEdgeStyle;rounded=0;orthogonalLoop=1;jettySize=auto;html=1;" parent="1" source="SfVPnzxpGZciWS-98-xS-55" target="SfVPnzxpGZciWS-98-xS-31" edge="1">
          <mxGeometry relative="1" as="geometry">
            <mxPoint x="610" y="840" as="targetPoint" />
            <Array as="points">
              <mxPoint x="610" y="840" />
            </Array>
          </mxGeometry>
        </mxCell>
        <mxCell id="SfVPnzxpGZciWS-98-xS-55" value="Wyłącz klienta" style="rounded=1;whiteSpace=wrap;html=1;" parent="1" vertex="1">
          <mxGeometry x="550" y="310" width="120" height="60" as="geometry" />
        </mxCell>
        <mxCell id="SfVPnzxpGZciWS-98-xS-41" value="Zaznacz pole do przesunięcia" style="rounded=1;whiteSpace=wrap;html=1;" parent="1" vertex="1">
          <mxGeometry x="-290" y="920" width="120" height="60" as="geometry" />
        </mxCell>
        <mxCell id="SfVPnzxpGZciWS-98-xS-57" style="edgeStyle=orthogonalEdgeStyle;rounded=0;orthogonalLoop=1;jettySize=auto;html=1;" parent="1" source="SfVPnzxpGZciWS-98-xS-35" target="SfVPnzxpGZciWS-98-xS-41" edge="1">
          <mxGeometry relative="1" as="geometry">
            <mxPoint x="-230" y="1030" as="targetPoint" />
            <mxPoint x="-189.8869565217392" y="847.5999999999999" as="sourcePoint" />
            <Array as="points">
              <mxPoint x="-125" y="910" />
              <mxPoint x="-230" y="910" />
            </Array>
          </mxGeometry>
        </mxCell>
        <mxCell id="SfVPnzxpGZciWS-98-xS-59" value="Tak" style="text;html=1;strokeColor=none;fillColor=none;align=center;verticalAlign=middle;whiteSpace=wrap;rounded=0;" parent="1" vertex="1">
          <mxGeometry x="-330" y="1060" width="40" height="20" as="geometry" />
        </mxCell>
        <mxCell id="SfVPnzxpGZciWS-98-xS-64" style="edgeStyle=orthogonalEdgeStyle;rounded=0;orthogonalLoop=1;jettySize=auto;html=1;entryX=0.5;entryY=1;entryDx=0;entryDy=0;" parent="1" source="SfVPnzxpGZciWS-98-xS-60" target="SfVPnzxpGZciWS-98-xS-72" edge="1">
          <mxGeometry relative="1" as="geometry">
            <mxPoint x="-370" y="440" as="targetPoint" />
            <Array as="points">
              <mxPoint x="-50" y="1230" />
              <mxPoint x="-360" y="1230" />
              <mxPoint x="-360" y="480" />
            </Array>
          </mxGeometry>
        </mxCell>
        <mxCell id="SfVPnzxpGZciWS-98-xS-60" value="Czy skok był pojedynczy?" style="rhombus;whiteSpace=wrap;html=1;" parent="1" vertex="1">
          <mxGeometry x="-110" y="1110" width="120" height="100" as="geometry" />
        </mxCell>
        <mxCell id="SfVPnzxpGZciWS-98-xS-61" value="&lt;div&gt;Tak&lt;/div&gt;" style="text;html=1;strokeColor=none;fillColor=none;align=center;verticalAlign=middle;whiteSpace=wrap;rounded=0;" parent="1" vertex="1">
          <mxGeometry x="10" y="1140" width="40" height="20" as="geometry" />
        </mxCell>
        <mxCell id="SfVPnzxpGZciWS-98-xS-72" value="" style="rhombus;whiteSpace=wrap;html=1;rotation=90;" parent="1" vertex="1">
          <mxGeometry x="-10" y="440" width="80" height="80" as="geometry" />
        </mxCell>
        <mxCell id="SfVPnzxpGZciWS-98-xS-73" value="Zakończ turę" style="text;html=1;strokeColor=none;fillColor=none;align=center;verticalAlign=middle;whiteSpace=wrap;rounded=0;" parent="1" vertex="1">
          <mxGeometry x="40" y="410" width="40" height="20" as="geometry" />
        </mxCell>
        <mxCell id="SfVPnzxpGZciWS-98-xS-74" value="Zaznacz pionek" style="text;html=1;strokeColor=none;fillColor=none;align=center;verticalAlign=middle;whiteSpace=wrap;rounded=0;" parent="1" vertex="1">
          <mxGeometry x="40" y="530" width="40" height="20" as="geometry" />
        </mxCell>
        <mxCell id="SfVPnzxpGZciWS-98-xS-78" value="Tak" style="text;html=1;strokeColor=none;fillColor=none;align=center;verticalAlign=middle;whiteSpace=wrap;rounded=0;" parent="1" vertex="1">
          <mxGeometry x="-145" y="920" width="40" height="20" as="geometry" />
        </mxCell>
        <mxCell id="SfVPnzxpGZciWS-98-xS-79" value="Nie" style="text;html=1;strokeColor=none;fillColor=none;align=center;verticalAlign=middle;whiteSpace=wrap;rounded=0;" parent="1" vertex="1">
          <mxGeometry x="-50" y="1200" width="40" height="20" as="geometry" />
        </mxCell>
        <mxCell id="SfVPnzxpGZciWS-98-xS-80" value="Tak" style="text;html=1;strokeColor=none;fillColor=none;align=center;verticalAlign=middle;whiteSpace=wrap;rounded=0;" parent="1" vertex="1">
          <mxGeometry x="130" y="450" width="40" height="20" as="geometry" />
        </mxCell>
        <mxCell id="SfVPnzxpGZciWS-98-xS-81" value="Nie" style="text;html=1;strokeColor=none;fillColor=none;align=center;verticalAlign=middle;whiteSpace=wrap;rounded=0;" parent="1" vertex="1">
          <mxGeometry x="290" y="460" width="40" height="20" as="geometry" />
        </mxCell>
      </root>
    </mxGraphModel>
  </diagram>
</mxfile>
